PathFileType  4	(X/Y/Z) C:\Users\antoi\Documents\MyRepositories\mobilecap\ResultsAnalysis
DataRate	CameraRate	NumFrames	NumMarkers	Units	OrigDataRate	OrigDataStartFrame	OrigNumFrames
100.0	100.0	5	51	mm	100.0	98	261
Frame#	Time	r_knee			r_shank_antsup			r_ankle			r_calc			r_5meta			r_toe			L_knee			L_shank_antsup			L_ankle			L_calc			L_5meta			L_toe			r_sh2			r_sh3			r_sh4			L_sh2			L_sh3			r_thigh1			r_thigh2			r_thigh3			r_thigh4			r_thigh5			L_thigh1			L_thigh2			L_thigh3			L_thigh4			r.ASIS			r.PSIS			L.ASIS			L.PSIS			C7			R_Shoulder			L_Shoulder			R_Sternum			L_Sternum			R_humerus			R_elbow_med			R_elbow_lat			R_forearm			R_wrist_radius			R_wrist_ulna			L_humerus			L_elbow_med			L_elbow_lat			L_forearm			L_wrist_radius			L_wrist_ulna			R_HJC			L_HJC			R_HJC_reg			L_HJC_reg			
		X1	Y1	Z1	X2	Y2	Z2	X3	Y3	Z3	X4	Y4	Z4	X5	Y5	Z5	X6	Y6	Z6	X7	Y7	Z7	X8	Y8	Z8	X9	Y9	Z9	X10	Y10	Z10	X11	Y11	Z11	X12	Y12	Z12	X13	Y13	Z13	X14	Y14	Z14	X15	Y15	Z15	X16	Y16	Z16	X17	Y17	Z17	X18	Y18	Z18	X19	Y19	Z19	X20	Y20	Z20	X21	Y21	Z21	X22	Y22	Z22	X23	Y23	Z23	X24	Y24	Z24	X25	Y25	Z25	X26	Y26	Z26	X27	Y27	Z27	X28	Y28	Z28	X29	Y29	Z29	X30	Y30	Z30	X31	Y31	Z31	X32	Y32	Z32	X33	Y33	Z33	X34	Y34	Z34	X35	Y35	Z35	X36	Y36	Z36	X37	Y37	Z37	X38	Y38	Z38	X39	Y39	Z39	X40	Y40	Z40	X41	Y41	Z41	X42	Y42	Z42	X43	Y43	Z43	X44	Y44	Z44	X45	Y45	Z45	X46	Y46	Z46	X47	Y47	Z47	X48	Y48	Z48	X49	Y49	Z49	X50	Y50	Z50	X51	Y51	Z51	

98	0.97000000	-847.07560	912.82025	-402.43617	-851.44696	809.41001	-412.36657	-1093.40361	565.57179	-445.58342	-1178.72217	593.67505	-500.58177	-1080.10946	420.53167	-416.88188	-1009.96953	405.83999	-470.06710	-845.54059	922.88400	-750.64388	-881.67400	844.51495	-769.60020	-1092.81630	589.62423	-703.96749	-1177.70194	602.45736	-637.65214	-1068.41142	454.05967	-741.93590	-1000.07328	432.16600	-686.64454	-926.56544	726.15076	-390.60066	-895.05689	859.20764	-373.52879	-986.15994	783.09888	-373.90842	-951.50555	899.54605	-756.58116	-1014.29602	795.45041	-744.56661	-804.18320	1234.98179	-381.26442	-785.76657	1127.73192	-389.34368	-886.24909	1100.08103	-379.03789	-913.53704	1211.40287	-380.53453	-833.76441	1091.87506	-361.02537	-791.54125	1213.73824	-756.01547	-767.25158	1075.47305	-752.26999	-898.81982	1194.44475	-773.72123	-880.70701	1058.27519	-767.00068	-789.72596	1439.62842	-434.59125	-962.59926	1485.72101	-498.73365	-788.36782	1444.72452	-679.35396	-964.23006	1491.65367	-610.45900	-762.19128	1998.73431	-560.78856	-736.04404	1939.38952	-402.75832	-728.97324	1934.77640	-714.65857	-670.01199	1876.12931	-527.99984	-669.54485	1872.62363	-582.69021	-712.39145	1822.87477	-299.28681	-720.53453	1605.69504	-265.15963	-725.60350	1660.94686	-192.47919	-575.31479	1731.20579	-227.69945	-511.98534	1784.66583	-270.94393	-495.60527	1751.14287	-243.32282	-709.00588	1838.52144	-809.21467	-647.51406	1592.04886	-798.83189	-625.26047	1639.43100	-870.00624	-558.45926	1672.84111	-849.53717	-416.63467	1733.44686	-766.74406	-397.82956	1698.77789	-777.81254	-887.20822	1339.40181	-454.91961	-890.52815	1352.03369	-661.46796	-859.70808	1368.49027	-471.63002	-862.06331	1377.05737	-632.96654	
99	0.98000000	-827.85256	921.10775	-401.74218	-832.41200	817.57042	-412.85377	-1075.47340	576.43708	-445.78846	-1161.37212	601.92379	-501.93103	-1060.11208	433.05159	-412.86093	-989.88865	417.31421	-466.01119	-825.68950	931.53492	-751.94778	-862.18872	853.96443	-770.72148	-1074.22025	599.04097	-706.71660	-1159.06748	610.26832	-640.06951	-1048.87806	464.35603	-746.77616	-979.94683	442.46540	-692.36418	-907.79196	734.96598	-390.97514	-875.74140	867.21369	-373.74726	-967.03816	792.03147	-372.94842	-931.98548	909.08885	-758.09487	-994.95412	804.96664	-746.40166	-790.72189	1244.18349	-380.86418	-770.39936	1137.25306	-388.87905	-870.34756	1107.87624	-378.64540	-899.23840	1219.00349	-380.25172	-817.86154	1100.87203	-360.42113	-776.25994	1223.39975	-756.42135	-750.34912	1085.34532	-752.60332	-883.44156	1202.39481	-774.48661	-863.35987	1066.51120	-768.04949	-777.53842	1447.93018	-435.08819	-950.52588	1493.74213	-498.96389	-776.06527	1452.89512	-679.38715	-952.09930	1499.46836	-610.79005	-751.79012	2007.43912	-560.78451	-726.61303	1948.62797	-402.61880	-719.68122	1943.84412	-714.61750	-659.67475	1884.59783	-527.82108	-659.20486	1881.12703	-582.49274	-705.43135	1833.91733	-296.28178	-711.93101	1617.38351	-260.66917	-720.60682	1672.79795	-188.12318	-570.95028	1745.91428	-220.60485	-508.19271	1800.92292	-262.86545	-491.58488	1767.62028	-235.10176	-701.18069	1847.89612	-810.41070	-638.17131	1602.28194	-801.48008	-618.42211	1649.47468	-873.85557	-552.98554	1685.77166	-853.27091	-414.74626	1753.00862	-770.39933	-394.45680	1719.05079	-781.01082	-874.82020	1347.52239	-455.11514	-878.11020	1360.01650	-661.67223	-847.42377	1376.96557	-471.94453	-849.68935	1385.21233	-632.99116	
100	0.99000000	-808.98917	928.60618	-401.44727	-813.55858	825.18892	-413.04936	-1056.72771	585.85679	-445.77779	-1143.16866	607.98655	-503.44021	-1038.28730	444.46400	-408.36630	-967.77866	428.14661	-461.77363	-806.89993	939.77070	-753.33727	-843.50487	863.17887	-772.00455	-1054.54364	605.62660	-709.89795	-1139.43987	615.52122	-643.12633	-1028.01995	471.73875	-751.64159	-958.72496	450.03712	-697.50713	-889.08858	743.06839	-391.58539	-856.82120	874.17225	-373.48042	-948.00379	799.98800	-372.57490	-913.97277	917.56796	-758.94059	-975.74874	812.68672	-748.81787	-776.97231	1252.28957	-380.55797	-755.02417	1145.67758	-388.28665	-854.47824	1114.77219	-378.21240	-885.06490	1225.43248	-379.94384	-802.05944	1108.48373	-359.92218	-760.90214	1231.97659	-756.38714	-733.65337	1094.19361	-752.47993	-867.75241	1209.79849	-775.70024	-846.11398	1073.97450	-769.38099	-765.52209	1455.47504	-435.15609	-938.77916	1500.66742	-499.13159	-763.76627	1460.17944	-679.32259	-940.36783	1506.09014	-611.00656	-741.01010	2015.35430	-560.78628	-716.92521	1956.91673	-402.39784	-709.96597	1951.89514	-714.53620	-649.10512	1892.23887	-527.44799	-648.64673	1888.73668	-582.20106	-698.42944	1843.74293	-293.41533	-703.88424	1627.87433	-255.88751	-715.95539	1683.69354	-183.81386	-566.73970	1759.09060	-213.46792	-504.35635	1815.35700	-254.66935	-487.61211	1782.28613	-226.77683	-692.99376	1856.25178	-811.42561	-628.77905	1611.50568	-803.89517	-611.74551	1658.31973	-877.74939	-547.61652	1697.31129	-857.19264	-412.93623	1770.35737	-774.37354	-391.31961	1737.15524	-784.49282	-862.45761	1354.70566	-455.05757	-865.60725	1366.91772	-661.63356	-835.10942	1384.46916	-471.79046	-837.39535	1392.27184	-632.76920	
101	1.00000000	-790.93806	936.18561	-400.30234	-794.74214	832.51732	-412.67151	-1036.90505	592.97810	-445.30777	-1123.37018	612.22946	-504.85727	-1016.19623	453.55448	-403.80667	-945.21008	436.56586	-457.57168	-789.48757	947.47729	-754.88158	-825.84391	871.38633	-773.54209	-1033.91652	609.62949	-713.69025	-1119.20368	617.77970	-646.94092	-1005.30138	476.33170	-756.11358	-935.64610	455.69077	-701.95493	-870.18505	750.03932	-391.66518	-838.23337	881.27529	-373.03481	-929.08245	806.83492	-373.02130	-897.31043	924.43322	-759.51361	-957.18625	818.41628	-751.60110	-762.65282	1259.40271	-380.33848	-739.70158	1152.96937	-387.77862	-838.70904	1120.87449	-377.82793	-870.97066	1230.95884	-379.71517	-786.24365	1115.07243	-359.59685	-745.78739	1239.43002	-755.72922	-717.31322	1101.95291	-751.98005	-852.08361	1216.50985	-777.18152	-829.20969	1080.70253	-770.89327	-753.72317	1462.30321	-434.95020	-927.33934	1506.51377	-499.29784	-751.54194	1466.81736	-679.17585	-928.82088	1511.72094	-611.24009	-729.84904	2022.48263	-560.77677	-706.95054	1964.37856	-402.05306	-699.92156	1958.96499	-714.50401	-638.33025	1899.14496	-527.04627	-637.89889	1895.61116	-582.05236	-691.34970	1852.47975	-290.81486	-696.57266	1637.25949	-250.62937	-711.66504	1693.73417	-179.55027	-562.76447	1770.88824	-206.36257	-500.46802	1828.02446	-246.51165	-483.79718	1795.26479	-218.36162	-684.63997	1863.72197	-812.22222	-619.98796	1619.48868	-807.04169	-605.28352	1666.08506	-881.59424	-542.40624	1707.43071	-861.15639	-411.18032	1785.74088	-778.61840	-388.29757	1753.20931	-788.35952	-850.12763	1360.98343	-454.95948	-852.97445	1372.96702	-661.55338	-822.87656	1390.98834	-471.54130	-825.00794	1398.47898	-632.57580	
102	1.01000000	-773.42581	943.15903	-399.18366	-776.22111	839.31833	-411.94154	-1016.14041	597.60710	-444.55955	-1102.30465	614.56264	-505.74244	-993.83389	459.74681	-400.12343	-922.13631	442.55356	-453.57508	-773.42567	954.10653	-756.19145	-809.23280	877.87365	-775.23330	-1012.31265	611.39185	-718.02830	-1098.38959	617.16153	-651.68642	-980.47616	478.62223	-760.14762	-910.51263	459.87411	-705.71021	-851.04645	755.70893	-390.94738	-820.38568	888.57899	-372.89980	-910.55101	812.49638	-373.79037	-881.66688	929.32663	-760.21471	-939.54639	822.13811	-754.07884	-748.05003	1265.68548	-380.31306	-724.39520	1159.40433	-387.63560	-823.01653	1126.39884	-377.47407	-856.67402	1235.96253	-379.44821	-770.38669	1121.16908	-359.30120	-730.94025	1245.88888	-754.86449	-701.50985	1108.65756	-751.43750	-836.68017	1222.39681	-778.38889	-812.81071	1086.74693	-772.62549	-742.10403	1468.35731	-434.73789	-916.05642	1511.29577	-499.46704	-739.44423	1472.93191	-679.02704	-917.29519	1516.45119	-611.58572	-718.34953	2028.75180	-560.70314	-696.71883	1971.05338	-401.60500	-689.52646	1965.12158	-714.57603	-627.41323	1905.32832	-526.66391	-626.93004	1901.73956	-582.12810	-684.20561	1860.22744	-288.48117	-689.84326	1645.81934	-245.50998	-707.75333	1702.96356	-175.56232	-559.06101	1781.44310	-199.36141	-496.45971	1839.10402	-238.37062	-480.19279	1806.61405	-209.76766	-676.02474	1870.32899	-813.05182	-612.17310	1626.15092	-811.08707	-599.02753	1672.79246	-885.38705	-537.37654	1716.23221	-865.29782	-409.36251	1799.23559	-783.07503	-385.34350	1767.36458	-792.69609	-837.75829	1366.32733	-455.02446	-840.21736	1378.29789	-661.62417	-810.72050	1396.57845	-471.48260	-812.50046	1403.98554	-632.57097	
